# xmcd
#
# Track frame offsets: 
#        150
#        19077
#        30158
#        46507
#        64108
#        80241
#        103178
#        121402
#        136195
#        151482
#        166631
#        169917
#        194928
#        208381
#
# Disc length: 3124 seconds
#
# Revision: 0
# Processed by: cddbd v1.5.2PL0 Copyright (c) Steve Scherf et al.
# Submitted via: ExactAudioCopy v1.0b3
#
DISCID=be0c320e
DTITLE=Juan Carlos Marsili - Amor Divino
DYEAR=2006
DGENRE=Himnos
TTITLE0=Del amor divino
TTITLE1=Promesas I
TTITLE2=Promesas II
TTITLE3=Yo vivo por El
TTITLE4=El amigo más fiel
TTITLE5=Calma la tempestad
TTITLE6=Congregados
TTITLE7=Tienes todo
TTITLE8=A Su nombre, gloria!
TTITLE9=Hay poder sin igual
TTITLE10=Tal como soy
TTITLE11=El altar
TTITLE12=Infinito amor
TTITLE13=Tú eres Dios
EXTD=
EXTT0=
EXTT1=
EXTT2=
EXTT3=
EXTT4=
EXTT5=
EXTT6=
EXTT7=
EXTT8=
EXTT9=
EXTT10=
EXTT11=
EXTT12=
EXTT13=
PLAYORDER=
